<svg xmlns="http://www.w3.org/2000/svg" width="488" height="151" fill="none" viewBox="0 0 488 151">
  <path fill="#000" d="M105.21 22.57h24.42c14.25 0 22.88 8.46 22.88 20.66v.18c0 13.83-10.76 21-24.16 21h-10v17.93h-13.14V22.57zm23.56 30.14c6.58 0 10.42-3.93 10.42-9v-.17c0-5.89-4.1-9-10.67-9h-10.16v18.17h10.41zM189.14 36.58h13.49L185 83.45c-3.5 9.3-7.25 12.8-15 12.8a21.432 21.432 0 01-11.53-3.16l4.35-9.39a11.76 11.76 0 005.55 1.79c2.22 0 3.42-.68 4.53-3L155 36.58h13.75l10.41 31.16 9.98-31.16zM203.05 52.63v-.18c0-17 12.81-30.9 31.16-30.9 11.27 0 18 3.76 23.56 9.22l-8.36 9.65c-4.61-4.19-9.31-6.75-15.28-6.75-10.08 0-17.34 8.37-17.34 18.61v.17c0 10.25 7.09 18.79 17.34 18.79 6.83 0 11-2.73 15.7-7l8.37 8.45c-6.15 6.57-13 10.67-24.5 10.67-17.59 0-30.65-13.57-30.65-30.73zM262.54 20.02h13v23c3-3.84 6.83-7.34 13.4-7.34 9.82 0 15.54 6.49 15.54 17v29.66h-13V56.81c0-6.15-2.9-9.31-7.85-9.31-4.95 0-8.11 3.16-8.11 9.31v25.53h-13l.02-62.32zM309.91 69.19v-.17c0-10 7.6-14.6 18.44-14.6a32.473 32.473 0 0111.18 1.88v-.77c0-5.38-3.33-8.37-9.82-8.37a33.56 33.56 0 00-12.63 2.48l-3.25-9.91a40.39 40.39 0 0117.76-3.71c7.09 0 12.21 1.88 15.45 5.13 3.42 3.41 5 8.45 5 14.59v26.6h-12.59v-5c-3.16 3.5-7.52 5.81-13.83 5.81-8.62.04-15.71-4.91-15.71-13.96zm29.79-3v-2.3a20.002 20.002 0 00-8.28-1.71c-5.55 0-9 2.22-9 6.32v.17c0 3.5 2.9 5.55 7.08 5.55 6.1.01 10.2-3.32 10.2-8.02v-.01zM359.05 36.58h13v9.22c2.65-6.32 6.92-10.42 14.6-10.08V49.3H386c-8.63 0-13.92 5.2-13.92 16.13v16.91h-13l-.03-45.76zM392.52 36.58h13v6.44c3-3.84 6.92-7.34 13.49-7.34 6 0 10.5 2.65 12.89 7.26 4-4.7 8.79-7.26 15-7.26 9.64 0 15.45 5.81 15.45 16.82v29.8h-13V56.81c0-6.15-2.73-9.31-7.6-9.31-4.87 0-7.85 3.16-7.85 9.31v25.53H421V56.81c0-6.15-2.73-9.31-7.6-9.31-4.87 0-7.85 3.16-7.85 9.31v25.53h-13l-.03-45.76zM22.5 22.52h60v60h-60v-60z"/>
  <path fill="#fff" d="M29.98 71.18h22.5v3.75h-22.5v-3.75zM30 30.02h9.2c5.36 0 8.6 3.18 8.6 7.77v.06c0 5.2-4 7.9-9.08 7.9H35v6.74h-5V30.02zm8.86 11.33c2.47 0 3.92-1.47 3.92-3.4v-.06c0-2.22-1.54-3.41-4-3.41H35v6.87h3.86zM50.49 41.33v-.06A11.41 11.41 0 0162.2 29.65a11.59 11.59 0 018.86 3.46l-3.14 3.63a8.31 8.31 0 00-5.75-2.53c-3.79 0-6.52 3.14-6.52 7v.07c0 3.85 2.67 7.06 6.52 7.06 2.57 0 4.14-1 5.91-2.63l3.14 3.18a11.49 11.49 0 01-9.21 4 11.35 11.35 0 01-11.52-11.56z"/>
  <path fill="#000" d="M107.54 124.75v3.07h-2.39v-22.63h2.39v9.83a7.205 7.205 0 016.14-3.56c3.84 0 7.65 3 7.65 8.31v.06c0 5.24-3.78 8.34-7.65 8.34a7.215 7.215 0 01-6.14-3.42zm11.35-4.9v-.06c0-3.78-2.61-6.2-5.65-6.2a6 6 0 00-5.8 6.17v.06a5.997 5.997 0 005.8 6.2c3.1 0 5.65-2.29 5.65-6.17zM136.55 111.79h2.54l-6.72 16.56c-1.37 3.31-2.92 4.52-5.34 4.52a7.397 7.397 0 01-3.41-.8l.81-1.89a5 5 0 002.51.59c1.43 0 2.33-.75 3.29-3l-7.29-16h2.64l5.82 13.36 5.15-13.34zM150.47 124.29l1.76-1.52c1.34 2 2.7 3.1 5 3.1 2.45 0 4.24-1.77 4.24-5.21v-14.54h2.48v14.51a7.821 7.821 0 01-2 5.7 6.635 6.635 0 01-4.77 1.8 7.438 7.438 0 01-3.894-.978 7.438 7.438 0 01-2.816-2.862zM168.35 119.85v-.06c0-4.62 3.25-8.34 7.69-8.34 4.74 0 7.47 3.78 7.47 8.46.016.26.016.52 0 .78h-12.74a5.589 5.589 0 005.64 5.42 6.605 6.605 0 005.05-2.26l1.49 1.33a8.256 8.256 0 01-6.6 3 7.992 7.992 0 01-5.777-2.458 8.013 8.013 0 01-2.223-5.872zm12.74-.93c-.25-2.91-1.92-5.46-5.11-5.46-2.79 0-4.9 2.33-5.21 5.46h10.32zM187.94 123.57v-9.67h-2.23v-2.11h2.23v-4.84h2.39v4.84h5.08v2.11h-5.08v9.36a2.367 2.367 0 002.7 2.67 5.06 5.06 0 002.32-.56v2.05a6.06 6.06 0 01-2.88.68c-2.58 0-4.53-1.27-4.53-4.53zM199.33 106.12h9.24a7.998 7.998 0 015.68 1.92 4.801 4.801 0 011.39 3.47v.06a5.247 5.247 0 01-3.44 5c2.57.77 4.65 2.26 4.65 5.24v.06c0 3.72-3.13 5.92-7.87 5.92h-9.65v-21.67zm13.83 5.73c0-2.14-1.7-3.53-4.8-3.53h-6.61v7.47h6.42c2.94 0 5-1.33 5-3.88l-.01-.06zm-4.56 6.11h-6.85v7.66H209c3.28 0 5.33-1.46 5.33-3.88v-.06c.04-2.36-1.94-3.72-5.73-3.72zM221.38 111.79h2.39v4.23a6.859 6.859 0 016.54-4.47v2.57h-.19c-3.5 0-6.35 2.52-6.35 7.35v6.39h-2.39v-16.07zM232.22 123.17v-.06c0-3.38 2.79-5.18 6.85-5.18a17.16 17.16 0 014.93.68v-.59c0-2.88-1.77-4.37-4.78-4.37-1.689.02-3.35.423-4.86 1.18l-.72-2a13.218 13.218 0 015.83-1.34 7.003 7.003 0 015.18 1.77 6.317 6.317 0 011.64 4.68v9.8H244v-2.42a7.005 7.005 0 01-5.8 2.76c-2.98.08-5.98-1.62-5.98-4.91zm11.78-1.24v-1.55a16.802 16.802 0 00-4.71-.68c-3 0-4.69 1.3-4.69 3.31v.07c0 2 1.87 3.19 4 3.19 3.01 0 5.4-1.8 5.4-4.34zM251.11 105.65h2.73v2.64h-2.73v-2.64zm.16 6.14h2.38v16h-2.38v-16zM258.81 111.79h2.39v2.79a6.066 6.066 0 015.49-3.13c3.88 0 6.14 2.6 6.14 6.42v10h-2.39v-9.36c0-3-1.61-4.84-4.43-4.84a4.709 4.709 0 00-3.5 1.447 4.722 4.722 0 00-1.31 3.553v9.18h-2.39v-16.06zM276.29 125.77l1.2-1.7a9.386 9.386 0 005.55 2c1.93 0 3.32-1 3.32-2.54v-.06c0-1.61-1.89-2.23-4-2.82-2.51-.71-5.3-1.58-5.3-4.53v-.06c0-2.76 2.3-4.59 5.46-4.59 2.048.037 4.044.651 5.76 1.77l-1.08 1.8a9.076 9.076 0 00-4.74-1.55c-1.9 0-3.1 1-3.1 2.32v.06c0 1.52 2 2.11 4.12 2.76 2.48.75 5.15 1.71 5.15 4.59v.06c0 3-2.52 4.81-5.71 4.81a11.001 11.001 0 01-6.63-2.32z"/>
</svg>
